<svg width="32" height="31" viewBox="0 0 32 31" fill="none" xmlns="http://www.w3.org/2000/svg">
<g clip-path="url(#clip0_1_30)">
<g clip-path="url(#clip1_1_30)">
<path d="M7.58003 0.51458C6.09666 0.51458 4.64661 0.954446 3.41324 1.77856C2.17987 2.60267 1.21858 3.77401 0.650922 5.14445C0.0832645 6.5149 -0.0652575 8.0229 0.224132 9.47776C0.513521 10.9326 1.22782 12.269 2.27672 13.3179C3.32561 14.3668 4.66198 15.0811 6.11684 15.3705C7.5717 15.6599 9.0797 15.5113 10.4501 14.9437C11.8206 14.376 12.9919 13.4147 13.816 12.1814C14.6402 10.948 15.08 9.49794 15.08 8.01458C15.08 6.02545 14.2898 4.1178 12.8833 2.71128C11.4768 1.30476 9.56915 0.51458 7.58003 0.51458Z" fill="#004A90"/>
<path d="M6.50494 7.96356C6.50494 7.32945 6.95319 7.27114 7.43424 7.18732C7.98818 7.08163 8.3271 6.82288 8.3271 6.29445C8.32152 6.18783 8.29489 6.08338 8.24875 5.9871C8.20261 5.89082 8.13787 5.80461 8.05826 5.73347C7.97865 5.66233 7.88574 5.60765 7.78489 5.57259C7.68405 5.53752 7.57726 5.52276 7.47068 5.52916C6.42477 5.52916 6.57783 6.58601 5.64853 6.58601C5.42038 6.57841 5.20425 6.48191 5.04628 6.31713C4.88831 6.15235 4.80101 5.93234 4.80304 5.70408C4.80304 4.37755 6.31908 3.62318 7.48162 3.62318C9.0341 3.62318 10.3971 4.58892 10.3971 6.23251C10.3971 7.73761 9.54066 8.41909 8.36355 8.66691V8.8965C8.33544 9.11829 8.22738 9.32222 8.05965 9.47003C7.89192 9.61784 7.67603 9.6994 7.45247 9.6994C7.2289 9.6994 7.01301 9.61784 6.84527 9.47003C6.67754 9.32222 6.5695 9.11829 6.54139 8.8965V7.95627L6.50494 7.96356Z" fill="white"/>
<path d="M7.42331 10.3287C7.62585 10.3287 7.82384 10.3888 7.99225 10.5013C8.16065 10.6138 8.29191 10.7738 8.36941 10.9609C8.44692 11.148 8.4672 11.3539 8.42769 11.5526C8.38818 11.7512 8.29064 11.9337 8.14743 12.0769C8.00421 12.2201 7.82175 12.3176 7.6231 12.3571C7.42445 12.3967 7.21855 12.3764 7.03143 12.2989C6.84431 12.2214 6.68437 12.0901 6.57185 11.9217C6.45932 11.7533 6.39926 11.5553 6.39926 11.3528C6.40303 11.0823 6.51213 10.8241 6.70337 10.6328C6.89461 10.4416 7.15289 10.3325 7.42331 10.3287Z" fill="white"/>
</g>
</g>
<defs>
<clipPath id="clip0_1_30">
<rect width="31" height="30" fill="white" transform="translate(0.0800171 0.5)"/>
</clipPath>
<clipPath id="clip1_1_30">
<rect width="15" height="15" fill="white" transform="translate(0.0800171 0.5)"/>
</clipPath>
</defs>
</svg>
