<svg width="20" height="24" viewBox="0 0 20 24" fill="none" xmlns="http://www.w3.org/2000/svg">
<g clip-path="url(#clip0_1_20)">
<path d="M13.7701 7.22304C10.7861 7.22304 8.37729 9.59587 8.37729 12.5439C8.37729 15.492 13.087 21.2803 13.087 21.2803C13.4465 21.7477 14.0577 21.7477 14.4532 21.2803C14.4532 21.2803 19.1629 15.492 19.1629 12.5439C19.1629 9.59587 16.7541 7.22304 13.7701 7.22304ZM13.7701 14.0539C12.7634 14.0539 11.9725 13.263 11.9725 12.2563C11.9725 11.2497 12.7634 10.4587 13.7701 10.4587C14.7768 10.4587 15.5677 11.2497 15.5677 12.2563C15.5677 13.263 14.7408 14.0539 13.7701 14.0539Z" fill="#004990"/>
</g>
<defs>
<clipPath id="clip0_1_20">
<rect width="19" height="23" fill="white" transform="translate(0.359985 0.5)"/>
</clipPath>
</defs>
</svg>
