<svg width="26" height="27" viewBox="0 0 26 27" fill="none" xmlns="http://www.w3.org/2000/svg">
<path d="M25.688 11.68C25.636 11.576 25.532 11.472 25.48 11.368C25.376 11.264 25.324 11.16 25.22 11.108C25.116 11.004 25.012 10.952 24.908 10.9C24.804 10.848 24.7 10.796 24.544 10.744C24.44 10.692 24.284 10.64 24.18 10.64C23.972 10.588 23.556 10.588 23.244 10.588C22.984 10.588 22.724 10.588 22.464 10.588C22.152 10.588 21.892 10.588 21.58 10.588C21.32 10.588 21.06 10.588 20.8 10.588C20.644 10.588 20.436 10.588 20.28 10.588C20.228 10.588 20.228 10.588 20.176 10.588C20.072 10.588 20.02 10.536 19.968 10.432L15.86 1.436L15.808 1.28C15.548 0.812 15.08 0.5 14.508 0.5H13.676H13H12.324H11.492C10.92 0.5 10.452 0.812 10.192 1.28L10.14 1.436L6.03199 10.38C5.97999 10.484 5.92799 10.536 5.82399 10.536C5.77199 10.536 5.77199 10.536 5.71999 10.536C5.56399 10.536 5.35599 10.536 5.19999 10.536C4.93999 10.536 4.67999 10.536 4.41999 10.536C4.10799 10.536 3.84799 10.536 3.53599 10.536C3.27599 10.536 3.01599 10.536 2.75599 10.536C2.44399 10.536 1.97599 10.536 1.81999 10.588C1.71599 10.588 1.55999 10.64 1.45599 10.692C1.35199 10.744 1.24799 10.796 1.09199 10.848C0.987991 10.9 0.883991 11.004 0.779991 11.056C0.675991 11.16 0.623991 11.212 0.519991 11.316C0.415991 11.42 0.363991 11.524 0.311991 11.628C0.0519907 12.096 -9.26852e-06 12.564 0.103991 13.136C0.467991 15.424 0.883991 17.764 1.24799 20.052C1.50799 21.612 1.61199 23.172 2.07999 24.68C2.44399 25.72 3.11999 26.5 4.21199 26.5H13H21.788C22.88 26.5 23.556 25.72 23.868 24.732C24.336 23.224 24.44 21.664 24.7 20.104C25.064 17.816 25.48 15.476 25.844 13.188C25.948 12.616 25.948 12.148 25.688 11.68ZM8.63199 22.08C8.63199 22.756 8.21599 23.328 7.53999 23.484C6.65599 23.692 5.82399 23.016 5.82399 22.132V14.748C5.82399 13.864 6.60399 13.188 7.53999 13.396C8.16399 13.552 8.63199 14.124 8.63199 14.8V22.08ZM14.404 22.132C14.404 23.016 13.624 23.692 12.688 23.484C12.064 23.328 11.596 22.756 11.596 22.08V14.8C11.596 14.124 12.012 13.552 12.688 13.396C13.572 13.188 14.404 13.864 14.404 14.748V22.132ZM16.744 10.536H13H9.25599C9.20399 10.536 9.15199 10.484 9.15199 10.38L12.22 3.464C12.272 3.412 12.324 3.36 12.376 3.36H13H13.624C13.676 3.36 13.78 3.412 13.78 3.464L16.848 10.38C16.848 10.432 16.796 10.536 16.744 10.536ZM20.176 22.132C20.176 23.016 19.396 23.692 18.46 23.484C17.836 23.328 17.368 22.756 17.368 22.08V14.8C17.368 14.124 17.784 13.552 18.46 13.396C19.344 13.188 20.176 13.864 20.176 14.748V22.132Z" fill="#0067B2"/>
</svg>
